<svg width="189" height="40" viewBox="0 0 189 40" fill="none" xmlns="http://www.w3.org/2000/svg">
<path fill-rule="evenodd" clip-rule="evenodd" d="M34.4927 3.85715C34.4927 3.85715 35.8165 3.85715 47.216 3.85715C58.6155 3.85715 64.6707 12.808 64.6707 20.0153C64.6707 27.2227 58.6277 36.1121 47.216 36.1121H34.4927V3.85715ZM40.5969 9.89805V30.1203H47.216C54.3498 30.1203 58.5174 25.1476 58.5174 20.0276C58.5174 14.9076 54.3621 9.89805 47.216 9.89805C40.0698 9.89805 40.5969 9.89805 40.5969 9.89805Z" fill="#FAFAFA"/>
<path fill-rule="evenodd" clip-rule="evenodd" d="M82.0641 3.82031C92.9733 3.82031 98.0111 10.868 98.0111 15.9144H92.1643C92.1643 14.6129 89.2347 9.87349 82.0641 9.87349C75.3715 9.87349 71.9394 14.4533 71.9394 20.003C71.9394 25.5528 75.9108 30.1326 82.0641 30.1326C89.8599 30.1326 92.1643 25.074 92.1643 23.5023H98.0111C98.0111 23.5023 98.0111 36.1735 82.0641 36.1735C71.2162 36.1735 66.1048 27.0876 66.1048 19.9908C66.1048 12.8939 71.1549 3.82031 82.0641 3.82031Z" fill="#FAFAFA"/>
<path d="M17.3689 22.2009L24.9073 18.8612C25.0176 18.8121 25.0789 18.7138 25.0789 18.591L25.1524 10.4751C25.1524 10.2664 24.9318 10.1191 24.7357 10.205L17.2096 13.5324C17.0992 13.5815 17.038 13.6797 17.038 13.8025L16.9522 21.9307C16.9522 22.1395 17.1728 22.2868 17.3689 22.2009Z" fill="#FAFAFA"/>
<path d="M27.1381 4.22549C23.706 3.0959 20.1759 4.79029 17.516 6.7057C15.1748 8.38782 12.8336 10.7084 10.6763 13.3114C10.7989 15.2268 11.0073 17.9526 12.7233 20.6415C13.6549 19.2909 14.5374 18.1245 15.6774 16.7739L15.7141 13.3728C15.7141 13.0904 15.8857 12.8325 16.1554 12.7098L25.2995 8.67022C25.7898 8.44921 26.3537 8.80528 26.3537 9.34552C26.3537 9.34552 26.3537 21.6115 26.3414 25.7493C11.044 28.5487 9.85505 16.6142 9.57312 14.5147C9.377 13.0781 9.26669 11.4574 9.26669 9.6402H3.16244C3.16244 14.3305 3.82435 18.235 5.06236 21.4028C3.29727 23.5392 0 31.5569 0 36.1121H6.10425C6.10425 32.6005 8.60478 27.6892 8.78864 27.3209C10.0634 28.6224 14.8316 33.5705 26.3292 31.827V36.1121H32.4334V11.7275C32.4211 5.63749 27.1014 4.21322 27.1381 4.22549Z" fill="#FAFAFA"/>
</svg>
