<svg width="108" height="22" viewBox="0 0 108 22" fill="none" xmlns="http://www.w3.org/2000/svg">
<path d="M0.000625081 21.2969V-0.00312614H7.74063L12.2406 13.5269L16.7406 -0.00312614H24.4806V21.2969H18.6006V9.29687L14.3106 21.2069H10.1406L5.88063 9.29687V21.2969H0.000625081ZM32.8705 21.6569C31.1705 21.6569 29.7705 21.2669 28.6705 20.4869C27.5705 19.7069 27.0205 18.6169 27.0205 17.2169C27.0205 15.7769 27.4905 14.6769 28.4305 13.9169C29.3905 13.1369 30.7505 12.5569 32.5105 12.1769L37.3705 11.1569C37.3705 10.3169 37.1905 9.67687 36.8305 9.23687C36.4705 8.79687 35.9705 8.57687 35.3305 8.57687C34.6505 8.57687 34.1205 8.74687 33.7405 9.08687C33.3805 9.40687 33.1505 9.88687 33.0505 10.5269L27.2905 10.3469C27.6105 8.38687 28.4605 6.96687 29.8405 6.08687C31.2205 5.18687 33.0505 4.73687 35.3305 4.73687C37.9705 4.73687 39.9405 5.30687 41.2405 6.44687C42.5405 7.58687 43.1905 9.31687 43.1905 11.6369V16.3769C43.1905 16.8969 43.2705 17.2369 43.4305 17.3969C43.6105 17.5569 43.8505 17.6369 44.1505 17.6369H44.4805V21.2969C44.3005 21.3569 44.0105 21.4069 43.6105 21.4469C43.2105 21.5069 42.8205 21.5369 42.4405 21.5369C41.8605 21.5369 41.2605 21.4369 40.6405 21.2369C40.0205 21.0369 39.5005 20.6569 39.0805 20.0969C38.6605 19.5169 38.4505 18.6769 38.4505 17.5769L38.8705 18.0569C38.6505 18.7969 38.2905 19.4369 37.7905 19.9769C37.2905 20.5169 36.6305 20.9369 35.8105 21.2369C35.0105 21.5169 34.0305 21.6569 32.8705 21.6569ZM34.4905 17.9969C35.0305 17.9969 35.5105 17.8869 35.9305 17.6669C36.3705 17.4469 36.7205 17.1169 36.9805 16.6769C37.2405 16.2169 37.3705 15.6369 37.3705 14.9369V14.3969L34.7305 15.0569C34.2305 15.1769 33.8105 15.3769 33.4705 15.6569C33.1505 15.9169 32.9905 16.2569 32.9905 16.6769C32.9905 17.0969 33.1105 17.4269 33.3505 17.6669C33.5905 17.8869 33.9705 17.9969 34.4905 17.9969ZM52.8423 21.2969C51.0223 21.2969 49.6923 20.8769 48.8523 20.0369C48.0123 19.1769 47.5923 17.8169 47.5923 15.9569V1.28687H53.4123V15.1169C53.4123 15.9169 53.5723 16.4669 53.8923 16.7669C54.2323 17.0469 54.7423 17.1869 55.4223 17.1869H57.6423V21.2969H52.8423ZM44.8323 9.20687V5.09687H57.6423V9.20687H44.8323ZM65.1123 21.2969C63.2923 21.2969 61.9623 20.8769 61.1223 20.0369C60.2823 19.1769 59.8623 17.8169 59.8623 15.9569V1.28687H65.6823V15.1169C65.6823 15.9169 65.8423 16.4669 66.1623 16.7669C66.5023 17.0469 67.0123 17.1869 67.6923 17.1869H69.9123V21.2969H65.1123ZM57.1023 9.20687V5.09687H69.9123V9.20687H57.1023ZM79.8409 21.6569C78.1009 21.6569 76.5809 21.3069 75.2809 20.6069C73.9809 19.9069 72.9709 18.9269 72.2509 17.6669C71.5309 16.3869 71.1709 14.8969 71.1709 13.1969C71.1709 11.4969 71.5309 10.0169 72.2509 8.75687C72.9709 7.49687 73.9809 6.51687 75.2809 5.81687C76.5809 5.09687 78.1009 4.73687 79.8409 4.73687C81.5809 4.73687 83.0809 5.10687 84.3409 5.84687C85.6209 6.56687 86.6009 7.59687 87.2809 8.93687C87.9609 10.2769 88.3009 11.8569 88.3009 13.6769V14.6969H77.1709C77.2109 15.6769 77.4809 16.4069 77.9809 16.8869C78.5009 17.3469 79.1609 17.5769 79.9609 17.5769C80.5409 17.5769 81.0309 17.4669 81.4309 17.2469C81.8509 17.0269 82.1509 16.6369 82.3309 16.0769L88.0909 16.3769C87.6509 18.1169 86.6909 19.4369 85.2109 20.3369C83.7309 21.2169 81.9409 21.6569 79.8409 21.6569ZM77.1709 11.5769H82.4809C82.4609 10.6369 82.2109 9.92687 81.7309 9.44687C81.2509 8.94687 80.6209 8.69687 79.8409 8.69687C79.1009 8.69687 78.4809 8.95687 77.9809 9.47687C77.5009 9.99687 77.2309 10.6969 77.1709 11.5769ZM98.5909 21.6569C96.8509 21.6569 95.3309 21.3069 94.0309 20.6069C92.7309 19.9069 91.7209 18.9269 91.0009 17.6669C90.2809 16.3869 89.9209 14.8969 89.9209 13.1969C89.9209 11.4969 90.2809 10.0169 91.0009 8.75687C91.7209 7.49687 92.7309 6.51687 94.0309 5.81687C95.3309 5.09687 96.8509 4.73687 98.5909 4.73687C100.331 4.73687 101.831 5.10687 103.091 5.84687C104.371 6.56687 105.351 7.59687 106.031 8.93687C106.711 10.2769 107.051 11.8569 107.051 13.6769V14.6969H95.9209C95.9609 15.6769 96.2309 16.4069 96.7309 16.8869C97.2509 17.3469 97.9109 17.5769 98.7109 17.5769C99.2909 17.5769 99.7809 17.4669 100.181 17.2469C100.601 17.0269 100.901 16.6369 101.081 16.0769L106.841 16.3769C106.401 18.1169 105.441 19.4369 103.961 20.3369C102.481 21.2169 100.691 21.6569 98.5909 21.6569ZM95.9209 11.5769H101.231C101.211 10.6369 100.961 9.92687 100.481 9.44687C100.001 8.94687 99.3709 8.69687 98.5909 8.69687C97.8509 8.69687 97.2309 8.95687 96.7309 9.47687C96.2509 9.99687 95.9809 10.6969 95.9209 11.5769Z" fill="white"/>
</svg>
